<?xml version="1.0" standalone="no"?>
<!DOCTYPE svg PUBLIC "-//W3C//DTD SVG 20010904//EN"
 "http://www.w3.org/TR/2001/REC-SVG-20010904/DTD/svg10.dtd">
<svg version="1.0" xmlns="http://www.w3.org/2000/svg"
 width="562.000000pt" height="562.000000pt" viewBox="0 0 562.000000 562.000000"
 preserveAspectRatio="xMidYMid meet">
<metadata>
Created by potrace 1.14, written by Peter Selinger 2001-2017
</metadata>
<g transform="translate(0.000000,562.000000) scale(0.100000,-0.100000)"
fill="#000000" stroke="none">
<path d="M485 5564 c-229 -54 -406 -226 -465 -451 -19 -77 -20 -102 -17 -2328
1 -1237 5 -2259 9 -2270 51 -160 95 -234 189 -319 84 -76 179 -128 282 -153
18 -4 1060 -9 2317 -10 2225 -3 2287 -2 2352 16 208 60 367 208 440 411 l23
65 2 2250 c3 2410 5 2305 -44 2420 -26 60 -80 145 -122 188 -71 76 -199 154
-281 173 -19 4 -42 10 -50 13 -8 3 -1041 6 -2295 7 -1937 2 -2289 0 -2340 -12z"/>
</g>
</svg>
